<svg width="206" height="67" viewBox="0 0 206 67" fill="none" xmlns="http://www.w3.org/2000/svg">
<path d="M201.399 50.4373L203.659 49.9354V67H9.15527e-05V1L1.41243 1.75285L3.95465 7.52471L5.36699 8.52852L7.90918 8.02662L10.7339 5.51711L12.4287 5.76806L14.9709 11.289L16.6657 14.8023H18.9254L21.1852 11.5399L22.7 11.289H24.2923L27.3994 19.3194L28.2469 19.8213L29.6592 20.3232L31.0715 18.5665L33.3313 8.02662L34.7436 6.77186L36.1559 7.27376L38.9806 15.8061L40.6754 16.8099L43.7826 15.3042L45.4774 14.0494H47.7371L49.9969 18.8175L51.4092 20.5741L54.2339 21.076L56.4936 23.5856L57.9059 24.0875L59.3183 23.5856L62.4254 17.0608L64.9676 16.5589L68.0748 23.3346L69.2046 24.3384L70.8994 24.0875L74.2891 19.8213L76.8313 19.5703L78.8085 16.8099L80.2209 14.8023L81.6332 14.3004L82.7631 15.0532L85.5878 24.5894L86.4352 26.0951L87.565 26.346L88.9774 23.8365L91.802 10.5361L92.6495 9.53232H93.2144L94.6267 10.2852L96.8865 17.8137L98.0163 19.3194L100.276 19.8213L103.101 24.8403L103.948 25.5932H105.36L107.055 24.5894L108.75 22.3308L110.162 21.8289L112.422 23.0837L113.835 27.3498L115.247 28.8555L116.659 29.3574L119.201 28.1027L121.179 26.597L123.156 26.346L124.003 25.5932L126.263 22.8327L127.675 22.0798L129.088 22.8327L131.347 33.6236L133.042 37.6388H134.737L137.279 34.8783L138.692 34.3764L140.951 34.1255L142.929 37.8897L144.906 39.8973L146.036 40.1483L148.296 37.1369L150.838 35.8821L152.533 36.384L155.922 47.6768L157.335 48.1787L159.594 46.1711L162.701 44.1635H164.114H166L168 44.6654L170 44.9164L172.305 48.6806L174.565 49.9354L175.977 50.4373L177.955 51.1901L181.062 51.692L182.757 50.4373L184.734 47.6768L187.276 47.1749L188 44.1635L189.5 34.8783L193.773 44.1635V46.924L196.033 51.692L197.445 52.6958L199.14 52.4449L201.399 50.4373Z" fill="url(#paint0_linear_897_2033)"/>
<path d="M0 1.00006C2.90942 1.00006 2.90942 8.67575 5.81883 8.67575C8.72825 8.67575 8.60702 5.4547 11.6377 5.4547C14.6683 5.4547 14.4259 14.9122 17.4565 14.9122C20.4871 14.9122 20.0022 11.1155 23.2753 11.1155C26.5484 11.1155 25.6998 20.3401 29.0942 20.3401C32.4885 20.3401 32.0036 6.75683 34.913 6.75683C37.8224 6.75683 37.58 16.6667 40.7318 16.6667C43.8837 16.6667 43.3988 13.9528 46.5507 13.9528C49.7025 13.9528 49.2176 20.7375 52.3695 20.7375C55.5213 20.7375 55.1577 24.0271 58.1883 24.0271C61.219 24.0271 60.9765 16.6256 64.0071 16.6256C67.0378 16.6256 66.6741 24.4109 69.826 24.4109C72.9778 24.4109 72.2505 19.7096 75.6448 19.7096C79.0391 19.7096 78.433 14.4736 81.4636 14.4736C84.4943 14.4736 84.1306 26.4258 87.2825 26.4258C90.4343 26.4258 89.9494 9.36108 93.1013 9.36108C96.2532 9.36108 95.8895 19.5588 98.9201 19.5588C101.951 19.5588 101.345 25.6582 104.739 25.6582C108.133 25.6582 107.285 21.9574 110.558 21.9574C113.831 21.9574 112.982 29.496 116.377 29.496C119.771 29.496 118.922 26.5903 122.195 26.5903C125.469 26.5903 124.862 22.1904 128.014 22.1904C131.166 22.1904 130.681 37.9941 133.833 37.9941C136.985 37.9941 136.258 34.1289 139.652 34.1289C143.046 34.1289 142.561 40.1735 145.471 40.1735C148.38 40.1735 148.017 35.8559 151.29 35.8559C154.563 35.8559 154.078 48.3289 157.108 48.3289C160.139 48.3289 159.533 44.5733 162.927 44.5733C166.322 44.5733 164.386 44.5733 167.659 44.5733C170.932 44.5733 171.413 50.2067 174.565 50.2067C177.717 50.2067 176.989 51.9611 180.384 51.9611C183.778 51.9611 182.808 47.342 186.203 47.342C189.597 47.342 186.75 34.1289 189.659 34.1289C192.568 34.1289 194.931 52.8932 197.84 52.8932C200.75 52.8932 200.507 50.0696 203.659 50.0696" stroke="#FF9500" stroke-width="2"/>
<ellipse cx="202.731" cy="50.5" rx="2.73106" ry="3.5" fill="#FF9500"/>
<defs>
<linearGradient id="paint0_linear_897_2033" x1="101.83" y1="1" x2="101.83" y2="67" gradientUnits="userSpaceOnUse">
<stop stop-color="#FF9500" stop-opacity="0.12"/>
<stop offset="1" stop-color="white" stop-opacity="0"/>
</linearGradient>
</defs>
</svg>
