<svg width="206" height="69" viewBox="0 0 206 69" fill="none" xmlns="http://www.w3.org/2000/svg">
<path d="M2.25974 52.4373L0 51.9354V69H203.659V3L202.247 3.75285L199.705 9.52471L198.292 10.5285L195.75 10.0266L192.925 7.51711L191.23 7.76806L188.688 13.289L186.993 16.8023H184.734L182.474 13.5399L180.959 13.289H179.367L176.26 21.3194L175.412 21.8213L174 22.3232L172.588 20.5665L170.328 10.0266L168.916 8.77186L167.503 9.27376L164.679 17.8061L162.984 18.8099L159.877 17.3042L158.182 16.0494H155.922L153.662 20.8175L152.25 22.5741L149.425 23.076L147.166 25.5856L145.753 26.0875L144.341 25.5856L141.234 19.0608L138.692 18.5589L135.584 25.3346L134.455 26.3384L132.76 26.0875L129.37 21.8213L126.828 21.5703L124.851 18.8099L123.438 16.8023L122.026 16.3004L120.896 17.0532L118.071 26.5894L117.224 28.0951L116.094 28.346L114.682 25.8365L111.857 12.5361L111.01 11.5323H110.445L109.032 12.2852L106.773 19.8137L105.643 21.3194L103.383 21.8213L100.558 26.8403L99.711 27.5932H98.2987L96.6039 26.5894L94.9091 24.3308L93.4967 23.8289L91.237 25.0837L89.8247 29.3498L88.4123 30.8555L87 31.3574L84.4578 30.1027L82.4805 28.597L80.5032 28.346L79.6558 27.5932L77.3961 24.8327L75.9838 24.0798L74.5714 24.8327L72.3117 35.6236L70.6169 39.6388H68.9221L66.3799 36.8783L64.9675 36.3764L62.7078 36.1255L60.7305 39.8897L58.7532 41.8973L57.6234 42.1483L55.3636 39.1369L52.8214 37.8821L51.1266 38.384L47.737 49.6768L46.3247 50.1787L44.0649 48.1711L40.9578 46.1635H39.5455L37.8506 44.4068L35.3084 43.654L33.6136 44.4068L31.3539 50.6806L29.0942 51.9354L27.6818 52.4373L25.7045 53.1901L22.5974 53.692L20.9026 52.4373L18.9253 49.6768L16.3831 49.1749L14.1234 47.6692L12.1461 46.6654L11.0162 46.9164L9.88636 48.924L7.62662 53.692L6.21429 54.6958L4.51948 54.4449L2.25974 52.4373Z" fill="url(#paint0_linear_897_245)"/>
<path d="M203.659 3C200.75 3 200.75 10.6757 197.84 10.6757C194.931 10.6757 195.052 7.45464 192.022 7.45464C188.991 7.45464 189.233 16.9122 186.203 16.9122C183.172 16.9122 183.657 13.1155 180.384 13.1155C177.111 13.1155 177.959 22.34 174.565 22.34C171.171 22.34 171.656 8.75677 168.746 8.75677C165.837 8.75677 166.079 18.6666 162.927 18.6666C159.775 18.6666 160.26 15.9527 157.109 15.9527C153.957 15.9527 154.442 22.7375 151.29 22.7375C148.138 22.7375 148.502 26.0271 145.471 26.0271C142.44 26.0271 142.683 18.6255 139.652 18.6255C136.621 18.6255 136.985 26.4108 133.833 26.4108C130.681 26.4108 131.409 21.7095 128.014 21.7095C124.62 21.7095 125.226 16.4736 122.196 16.4736C119.165 16.4736 119.529 28.4257 116.377 28.4257C113.225 28.4257 113.71 11.361 110.558 11.361C107.406 11.361 107.77 21.5587 104.739 21.5587C101.708 21.5587 102.315 27.6581 98.9202 27.6581C95.5259 27.6581 96.3745 23.9574 93.1014 23.9574C89.8283 23.9574 90.6769 31.496 87.2826 31.496C83.8882 31.496 84.7368 28.5902 81.4637 28.5902C78.1906 28.5902 78.7968 24.1904 75.6449 24.1904C72.493 24.1904 72.9779 39.9941 69.8261 39.9941C66.6742 39.9941 67.4016 36.1288 64.0072 36.1288C60.6129 36.1288 61.0978 42.1734 58.1884 42.1734C55.279 42.1734 55.6427 37.8558 52.3696 37.8558C49.0965 37.8558 49.5814 50.3288 46.5507 50.3288C43.5201 50.3288 44.1262 46.5732 40.7319 46.5732C37.3376 46.5732 38.1862 43.8456 34.9131 43.8456C31.64 43.8456 32.2461 52.2066 29.0942 52.2066C25.9424 52.2066 26.6697 53.9611 23.2754 53.9611C19.8811 53.9611 20.8509 49.342 17.4566 49.342C14.0623 49.342 14.5472 46.8748 11.6378 46.8748C8.72834 46.8748 8.72834 54.8931 5.81893 54.8931C2.90951 54.8931 3.15197 52.0696 0.000100613 52.0696" stroke="url(#paint1_linear_897_245)" stroke-width="2"/>
<ellipse cx="203.269" cy="3.5" rx="2.73106" ry="3.5" fill="url(#paint2_linear_897_245)"/>
<defs>
<linearGradient id="paint0_linear_897_245" x1="101.83" y1="3" x2="101.83" y2="69" gradientUnits="userSpaceOnUse">
<stop stop-color="#DF1AFF" stop-opacity="0.12"/>
<stop offset="1" stop-color="white" stop-opacity="0"/>
</linearGradient>
<linearGradient id="paint1_linear_897_245" x1="101.83" y1="3" x2="101.83" y2="54.8931" gradientUnits="userSpaceOnUse">
<stop stop-color="#8A00D4"/>
<stop offset="1" stop-color="#8F19BD"/>
</linearGradient>
<linearGradient id="paint2_linear_897_245" x1="203.269" y1="0" x2="203.269" y2="7" gradientUnits="userSpaceOnUse">
<stop stop-color="#8A00D4"/>
<stop offset="1" stop-color="#8F19BD"/>
</linearGradient>
</defs>
</svg>
