<svg width="30" height="30" viewBox="0 0 30 30" fill="none" xmlns="http://www.w3.org/2000/svg">
<path d="M13.937 4.75H14.1431H15.8569H16.063L16.1023 4.95231L16.5616 7.31549L17.7347 7.75923C17.7347 7.75926 17.7348 7.75929 17.7349 7.75932C17.7349 7.75932 17.7349 7.75933 17.7349 7.75933C18.5451 8.06472 19.275 8.48468 19.9094 9.00581L13.937 4.75ZM13.937 4.75L13.8977 4.95231L13.4384 7.31549L12.2653 7.75923C12.2653 7.75926 12.2652 7.75929 12.2651 7.75932C12.2651 7.75932 12.2651 7.75933 12.2651 7.75933C11.4548 8.06476 10.7248 8.48481 10.0903 9.00604L9.11924 9.80357L6.84901 9.02145L6.65412 8.95431L6.55107 9.13282L5.69413 10.6172L5.59109 10.7957L5.74665 10.9309L7.56304 12.5095L7.36312 13.7464L13.937 4.75ZM11.5579 5.88822L11.6885 5.83897L11.7151 5.70197L12.2886 2.75H17.7114L18.2849 5.70197L18.3115 5.83895L18.442 5.8882C19.4481 6.26776 20.3723 6.7959 21.1792 7.4588L21.2872 7.5475L21.4193 7.502L24.2519 6.52659L26.9656 11.2211L24.6943 13.1976L24.6084 13.2724V13.3862V13.3887V13.4089L24.6116 13.4288C24.7029 13.9901 24.75 14.5065 24.75 15C24.75 15.4943 24.7032 16.0115 24.6117 16.5736L24.5893 16.7109L24.6942 16.8023L26.9632 18.7789L24.2519 23.4733L21.417 22.4956L21.2848 22.45L21.1768 22.5388C20.3691 23.2022 19.448 23.7324 18.4421 24.1118L18.3115 24.161L18.2849 24.298L17.7114 27.25H12.2886L11.7151 24.298L11.6885 24.161L11.558 24.1118C10.5519 23.7322 9.62775 23.2041 8.8208 22.5412L8.71283 22.4525L8.58071 22.498L5.74812 23.4734L3.03448 18.779L5.30561 16.8049L5.3916 16.7301V16.6162V16.6138V16.5939L5.38845 16.5742C5.29817 16.011 5.25 15.4947 5.25 15C5.25 14.5057 5.2968 13.9885 5.38835 13.4264L5.41074 13.2889L5.30561 13.1975L3.03445 11.2234L5.74811 6.52669L8.58304 7.50441L8.71518 7.54998L8.8232 7.46128C9.63053 6.79836 10.5527 6.26734 11.5579 5.88822ZM20.8807 9.80129L19.9097 9.00604L22.6369 16.2533C22.715 15.7742 22.75 15.3675 22.75 15C22.75 14.6376 22.716 14.2369 22.6401 13.7665V13.7643L22.637 13.7447L22.4392 12.5072L24.2535 10.9283L24.409 10.793L24.3058 10.6146L23.4488 9.13267L23.3458 8.95452L23.1512 9.02137L20.8807 9.80129ZM22.4369 17.4906L22.6369 16.2536L7.36307 13.7467C7.28496 14.2258 7.25 14.6325 7.25 15C7.25 15.3622 7.28515 15.7639 7.35986 16.2356V16.2384L7.36309 16.2583L7.56299 17.4906L5.74651 19.0717L5.59106 19.207L5.69422 19.3854L6.55116 20.8673L6.65417 21.0455L6.84879 20.9786L9.11934 20.1987L10.0903 20.994C10.7248 21.5152 11.4548 21.9352 12.2651 22.2407C12.2651 22.2407 12.2651 22.2407 12.2651 22.2407C12.2652 22.2407 12.2653 22.2407 12.2653 22.2408L13.4384 22.6845L13.8977 25.0477L13.937 25.25H14.1431H15.8545H16.0606L16.0999 25.0477L16.5592 22.6845L17.6897 22.2568H17.692L17.7347 22.2408C18.5453 21.9352 19.2729 21.5151 19.9072 20.994L20.8805 20.1964L23.1485 20.9785L23.3434 21.0458L23.4465 20.8672L24.3034 19.3828L24.4064 19.2044L24.251 19.0692L22.4369 17.4906ZM10.25 15C10.25 12.3924 12.3924 10.25 15 10.25C17.6076 10.25 19.75 12.3924 19.75 15C19.75 17.6076 17.6076 19.75 15 19.75C12.3924 19.75 10.25 17.6076 10.25 15ZM17.75 15C17.75 13.4726 16.5274 12.25 15 12.25C13.4726 12.25 12.25 13.4726 12.25 15C12.25 16.5274 13.4726 17.75 15 17.75C16.5274 17.75 17.75 16.5274 17.75 15Z" fill="#ECEFF5" stroke="#ECEFF5" stroke-width="0.5"/>
</svg>
